#!OML:ASF F:\VICON\USERDATA\INSTALL\rory3\rory3.ASF
:FULLY-SPECIFIED
:DEGREES
796
root 0.0980164 15.6731 -6.28565 338.955 -26.8594 -356.818
lowerback 25.3456 1.39932 -3.32996
upperback 14.0547 0.688777 -1.01802
thorax 1.48851 0.0240761 0.625143
lowerneck -8.80564 -2.44982 -8.21765
upperneck -2.97601 -2.54922 6.59076
head 0.807977 -1.13406 3.52577
rclavicle 1.34677e-014 3.97569e-015
rhumerus -33.7101 71.4137 -74.9295
rradius 91.6299
rwrist 37.2965
rhand -46.8298 37.8026
rfingers 7.12502
rthumb -19.5437 8.76491
lclavicle 1.34677e-014 3.97569e-015
lhumerus -30.4482 -75.8698 71.0552
lradius 86.9814
lwrist -26.8265
lhand -38.9045 9.59328
lfingers 7.12502
lthumb -11.9116 39.2344
rfemur -39.132 -6.37736 3.09915
rtibia 78.6428
rfoot 5.16476 -1.79694
rtoes -4.41373
lfemur -36.0952 6.98356 -10.2399
ltibia 71.9202
lfoot 10.0129 -9.94715
ltoes -5.70895
797
root 0.0979435 15.6729 -6.28553 338.998 -26.8916 -356.918
lowerback 25.3675 1.39005 -3.24379
upperback 14.0446 0.694311 -0.992538
thorax 1.46628 0.0313314 0.602477
lowerneck -8.86229 -2.45247 -8.28888
upperneck -2.89127 -2.54468 6.69597
head 0.849161 -1.12937 3.57682
rclavicle -5.46658e-015 3.02153e-014
rhumerus -33.9269 71.4096 -75.0746
rradius 91.6917
rwrist 37.3031
rhand -46.9159 37.7112
rfingers 7.12502
rthumb -19.6264 8.68189
lclavicle -5.46658e-015 3.02153e-014
lhumerus -30.6408 -75.8501 71.2449
lradius 86.9771
lwrist -26.797
lhand -38.9164 9.41466
lfingers 7.12502
lthumb -11.9231 39.0551
rfemur -39.1147 -6.35462 3.20776
rtibia 78.6306
rfoot 5.12683 -1.87126
rtoes -4.12273
lfemur -36.1068 6.99485 -10.1183
ltibia 71.9261
lfoot 10.0728 -9.97888
ltoes -5.73013
798
root 0.0981787 15.6709 -6.28581 339.064 -26.9015 -356.998
lowerback 25.3441 1.37514 -3.16993
upperback 14.0479 0.692373 -0.976364
thorax 1.48086 0.0339718 0.578782
lowerneck -8.85983 -2.47098 -8.23544
upperneck -2.93551 -2.57317 6.63282
head 0.834056 -1.1448 3.54287
rclavicle 1.25234e-014 -3.37934e-014
rhumerus -33.854 71.4161 -75.0103
rradius 91.6834
rwrist 37.2496
rhand -46.9431 37.4154
rfingers 7.12502
rthumb -19.6526 8.38872
lclavicle 1.25234e-014 -3.37934e-014
lhumerus -30.6614 -75.8803 71.2734
lradius 86.9723
lwrist -26.6932
lhand -39.105 9.54667
lfingers 7.12502
lthumb -12.1049 39.1765
rfemur -39.1453 -6.37693 3.29386
rtibia 78.6378
rfoot 5.09839 -1.91224
rtoes -4.0111
lfemur -36.1659 7.01972 -10.0382
ltibia 71.9442
lfoot 10.1192 -10.0418
ltoes -5.70602
799
root 0.098644 15.6709 -6.28596 339.041 -26.8684 -356.934
lowerback 25.3361 1.37655 -3.22941
upperback 14.0639 0.681628 -0.997725
thorax 1.50331 0.0253305 0.591886
lowerneck -8.83747 -2.47416 -8.15174
upperneck -3.01475 -2.58444 6.53319
head 0.801159 -1.15246 3.49105
rclavicle -2.1419e-014 2.98177e-015
rhumerus -33.6729 71.4192 -74.8869
rradius 91.6441
rwrist 37.2204
rhand -46.9347 37.0859
rfingers 7.12502
rthumb -19.6445 8.0584
lclavicle -2.1419e-014 2.98177e-015
lhumerus -30.5742 -75.8929 71.1867
lradius 86.9708
lwrist -26.6527
lhand -39.1552 9.64889
lfingers 7.12502
lthumb -12.1533 39.2759
rfemur -39.1486 -6.40286 3.21475
rtibia 78.6473
rfoot 5.08972 -1.8773
rtoes -4.0727
lfemur -36.1858 6.99605 -10.1107
ltibia 71.9564
lfoot 10.1503 -10.0218
ltoes -5.36155
800
root 0.0989201 15.671 -6.28685 339.048 -26.8904 -356.953
lowerback 25.3776 1.38239 -3.20528
upperback 14.0471 0.692024 -0.996377
thorax 1.46451 0.0326666 0.576968
lowerneck -8.86068 -2.46102 -8.18603
upperneck -2.95249 -2.56368 6.57533
head 0.825598 -1.14111 3.5134
rclavicle -3.18055e-014 1.39149e-014
rhumerus -33.8234 71.3906 -75.0309
rradius 91.6499
rwrist 37.2439
rhand -46.8648 37.1805
rfingers 7.12502
rthumb -19.5773 8.14623
lclavicle -3.18055e-014 1.39149e-014
lhumerus -30.6499 -75.8752 71.2571
lradius 86.9832
lwrist -26.716
lhand -39.0623 9.6527
lfingers 7.12502
lthumb -12.0637 39.285
rfemur -39.1566 -6.36228 3.24786
rtibia 78.6421
rfoot 5.09221 -1.82763
rtoes -4.45501
lfemur -36.2046 6.99925 -10.0741
ltibia 71.9763
lfoot 10.185 -9.98849
ltoes -5.32452
801
root 0.098318 15.6696 -6.28758 339.1 -26.9268 -357.066
lowerback 25.4155 1.36886 -3.09394
upperback 14.0451 0.696304 -0.979687
thorax 1.44427 0.0408932 0.530664
lowerneck -8.9891 -2.44827 -8.28248
upperneck -2.82968 -2.53202 6.7072
head 0.890911 -1.12138 3.57976
rclavicle -2.48978e-014 1.27222e-014
rhumerus -33.9238 71.3626 -75.1113
rradius 91.6924
rwrist 37.2264
rhand -46.7707 37.4643
rfingers 7.12502
rthumb -19.4869 8.42081
lclavicle -2.48978e-014 1.27222e-014
lhumerus -30.5855 -75.8412 71.1824
lradius 86.9978
lwrist -26.7647
lhand -39.003 9.62078
lfingers 7.12502
lthumb -12.0066 39.2564
rfemur -39.1571 -6.33694 3.3826
rtibia 78.6368
rfoot 5.09749 -1.84479
rtoes -4.57753
lfemur -36.2421 7.03225 -9.94859
ltibia 72.0037
lfoot 10.2168 -9.99532
ltoes -5.6456
802
root 0.0976933 15.6687 -6.28737 339.111 -26.9081 -357.091
lowerback 25.4039 1.34658 -3.05589
upperback 14.0759 0.67569 -0.996731
thorax 1.48545 0.032431 0.495525
lowerneck -8.99694 -2.44651 -8.28755
upperneck -2.91517 -2.5267 6.73557
head 0.864599 -1.11789 3.5908
rclavicle 7.88678e-014 -3.79679e-014
rhumerus -33.8157 71.3457 -75.0136
rradius 91.7485
rwrist 37.2156
rhand -46.7036 37.569
rfingers 7.12502
rthumb -19.4223 8.51898
lclavicle 7.88678e-014 -3.79679e-014
lhumerus -30.3592 -75.8362 70.916
lradius 87.0146
lwrist -26.7525
lhand -38.9737 9.42564
lfingers 7.12502
lthumb -11.9783 39.0629
rfemur -39.1354 -6.37508 3.39656
rtibia 78.6359
rfoot 5.08826 -1.8998
rtoes -4.25069
lfemur -36.2669 7.03423 -9.93501
ltibia 72.0279
lfoot 10.2481 -9.9893
ltoes -5.78328
803
root 0.0979586 15.6689 -6.2874 339.075 -26.8741 -357.015
lowerback 25.4074 1.3526 -3.1081
upperback 14.0843 0.671892 -1.01975
thorax 1.49376 0.0282049 0.501037
lowerneck -8.8804 -2.46081 -8.23868
upperneck -3.08419 -2.55429 6.66154
head 0.788228 -1.13411 3.55415
rclavicle -3.83654e-014 9.14409e-015
rhumerus -33.7987 71.3404 -74.9958
rradius 91.7598
rwrist 37.2376
rhand -46.6766 37.4387
rfingers 7.12502
rthumb -19.3964 8.38607
lclavicle -3.83654e-014 9.14409e-015
lhumerus -30.3413 -75.8785 70.8806
lradius 87.0309
lwrist -26.7372
lhand -38.955 9.3336
lfingers 7.12502
lthumb -11.9602 38.9719
rfemur -39.1288 -6.40779 3.30284
rtibia 78.6381
rfoot 5.08318 -1.88481
rtoes -4.13183
lfemur -36.2696 7.01874 -10.0218
ltibia 72.0424
lfoot 10.2636 -9.95617
ltoes -5.76594
804
root 0.0982684 15.6685 -6.28817 339.077 -26.8734 -356.999
lowerback 25.4317 1.36227 -3.13582
upperback 14.0791 0.677443 -1.00996
thorax 1.4762 0.0291243 0.525843
lowerneck -8.90404 -2.46351 -8.22541
upperneck -3.0829 -2.55721 6.61659
head 0.791766 -1.13594 3.53555
rclavicle -5.38706e-014 2.22639e-014
rhumerus -33.7949 71.3426 -74.9708
rradius 91.7435
rwrist 37.2577
rhand -46.7256 37.263
rfingers 7.12502
rthumb -19.4435 8.2151
lclavicle -5.38706e-014 2.22639e-014
lhumerus -30.3252 -75.8761 70.8933
lradius 87.0432
lwrist -26.7555
lhand -38.9455 9.4044
lfingers 7.12502
lthumb -11.9511 39.0432
rfemur -39.1454 -6.37962 3.29201
rtibia 78.6325
rfoot 5.08417 -1.88491
rtoes -4.18474
lfemur -36.2933 7.02156 -10.0353
ltibia 72.0601
lfoot 10.2711 -9.95474
ltoes -5.96699
805
root 0.0977673 15.6668 -6.28875 339.117 -26.8924 -357.058
lowerback 25.4188 1.35014 -3.10566
upperback 14.0907 0.668792 -0.996081
thorax 1.49553 0.0253526 0.525862
lowerneck -8.95914 -2.44074 -8.22935
upperneck -3.05881 -2.52309 6.63362
head 0.807098 -1.11792 3.54359
rclavicle -7.07673e-014 2.88238e-014
rhumerus -33.6285 71.3552 -74.812
rradius 91.7474
rwrist 37.2443
rhand -46.7805 37.3047
rfingers 7.12502
rthumb -19.4963 8.2622
lclavicle -7.07673e-014 2.88238e-014
lhumerus -30.2406 -75.8251 70.8081
lradius 87.057
lwrist -26.7889
lhand -38.9467 9.30099
lfingers 7.12502
lthumb -11.9523 38.9398
rfemur -39.16 -6.3433 3.36561
rtibia 78.6246
rfoot 5.06173 -1.92908
rtoes -4.10365
lfemur -36.3368 7.04782 -9.96211
ltibia 72.0946
lfoot 10.2907 -10.0384
ltoes -6.25329
806
root 0.0977036 15.6671 -6.28895 339.118 -26.9216 -357.114
lowerback 25.4371 1.34239 -3.05403
upperback 14.1061 0.66834 -0.991429
thorax 1.50448 0.0273534 0.501581
lowerneck -8.91895 -2.41653 -8.22786
upperneck -3.12847 -2.49214 6.65007
head 0.775053 -1.10251 3.55044
rclavicle 2.09221e-014 2.38542e-015
rhumerus -33.4675 71.3657 -74.6786
rradius 91.7496
rwrist 37.237
rhand -46.7489 37.6082
rfingers 7.12502
rthumb -19.4658 8.56262
lclavicle 2.09221e-014 2.38542e-015
lhumerus -30.3147 -75.7867 70.8403
lradius 87.0855
lwrist -26.8544
lhand -38.914 9.23346
lfingers 7.12502
lthumb -11.9207 38.8741
rfemur -39.1246 -6.32526 3.4343
rtibia 78.6147
rfoot 5.02931 -1.94343
rtoes -4.12541
lfemur -36.3217 7.07562 -9.89601
ltibia 72.1266
lfoot 10.2425 -10.1924
ltoes -6.75747
807
root 0.0979871 15.6702 -6.28862 339.064 -26.9279 -357.112
lowerback 25.4844 1.3501 -3.0487
upperback 14.1342 0.676336 -0.994202
thorax 1.51415 0.0308234 0.493263
lowerneck -8.93933 -2.40689 -8.20365
upperneck -3.14771 -2.47944 6.62165
head 0.770237 -1.09636 3.53615
rclavicle -9.45718e-014 3.55825e-014
rhumerus -33.361 71.3474 -74.567
rradius 91.7581
rwrist 37.2307
rhand -46.7018 37.7893
rfingers 7.12502
rthumb -19.4206 8.73916
lclavicle -9.45718e-014 3.55825e-014
lhumerus -30.3164 -75.7422 70.8165
lradius 87.1059
lwrist -26.9
lhand -38.8961 9.5315
lfingers 7.12502
lthumb -11.9034 39.1731
rfemur -39.0441 -6.31215 3.42923
rtibia 78.5937
rfoot 5.01942 -1.92957
rtoes -4.17536
lfemur -36.2524 7.05722 -9.89175
ltibia 72.1348
lfoot 10.2052 -10.2565
ltoes -7.15554
